<svg height="512" width="512" xmlns="http://www.w3.org/2000/svg"><path d="M495.998 389.952c0 8.835-7.215 16.051-16.051 16.051H32.053c-8.836 0-16.051-7.216-16.051-16.051V122.049c0-8.836 7.215-16.052 16.051-16.052h447.895c8.836 0 16.051 7.216 16.051 16.052v267.903z" fill-rule="evenodd" clip-rule="evenodd" fill="#14477c"/><path fill-rule="evenodd" clip-rule="evenodd" fill="#fbb230" d="M313.576 342.069l4.418-.086 4.424-.271 4.325-.635 4.239-.721 4.148-.992 4.147-1.078 3.967-1.447 3.969-1.528 3.783-1.72 3.697-1.891 3.611-2.077 3.518-2.249 3.426-2.434 3.247-2.526 3.063-2.705 3.061-2.89 2.799-2.976 2.711-3.155 2.611-3.248 2.434-3.332 2.164-3.519 2.168-3.604 1.8-3.697 1.805-3.876 1.534-3.882 1.355-4.054 1.172-4.061.986-4.146.727-4.332.542-4.234.356-4.424.088-4.412-.088-4.424-.356-4.418-.542-4.239-.727-4.232-.986-4.154-1.172-4.053-1.355-4.062-1.534-3.875-1.805-3.79-1.8-3.696-2.168-3.606-2.164-3.517-2.434-3.334-2.611-3.247-2.711-3.155-2.799-2.976-3.061-2.797-3.063-2.705-3.247-2.612-3.426-2.348-3.518-2.256-3.611-2.07-3.697-1.898-3.783-1.713-3.969-1.528-3.967-1.355-4.147-1.171-4.148-.992-4.239-.721-4.325-.542-4.424-.363-4.418-.087-4.418.087-4.325.363-4.332.542-4.233.721-4.153.992-4.146 1.171-3.973 1.355-3.875 1.528-3.789 1.713-3.697 1.898-3.604 2.07-3.519 2.256-3.333 2.348-3.254 2.612-3.154 2.705-2.97 2.797-2.891 2.976-2.611 3.155-2.619 3.247-2.342 3.334-2.255 3.517-2.07 3.606-1.898 3.696-1.713 3.79-1.535 3.875-1.348 4.062-1.171 4.053-.998 4.154-.715 4.232-.543 4.239-.363 4.418-.092 4.424.092 4.412.363 4.424.543 4.234.715 4.332.998 4.146 1.171 4.061 1.348 4.054 1.535 3.882 1.713 3.876 1.898 3.697 2.07 3.604 2.255 3.519 2.342 3.332 2.619 3.248 2.611 3.155 2.891 2.976 2.97 2.89 3.154 2.705 3.254 2.526 3.333 2.434 3.519 2.249 3.604 2.077 3.697 1.891 3.789 1.72 3.875 1.528 3.973 1.447 4.146 1.078 4.153.992 4.233.721 4.332.635 4.325.271 4.418.086z"/><path fill-rule="evenodd" clip-rule="evenodd" fill="#eb2230" d="M198.424 342.069l4.418-.086 4.325-.271 4.332-.635 4.233-.721 4.153-.992 4.152-1.078 3.963-1.447 3.875-1.528 3.791-1.72 3.695-1.891 3.606-2.077 3.517-2.249 3.334-2.434 3.254-2.526 3.155-2.705 2.969-2.89 2.891-2.976 2.618-3.155 2.613-3.248 2.341-3.332 2.255-3.519 2.07-3.604 1.899-3.697 1.713-3.876 1.534-3.882 1.349-4.054 1.176-4.061.993-4.146.715-4.332.541-4.234.365-4.424.091-4.412-.091-4.424-.365-4.418-.541-4.239-.715-4.232-.993-4.154-1.176-4.053-1.349-4.062-1.534-3.875-1.713-3.79-1.899-3.696-2.07-3.606-2.255-3.517-2.341-3.334-2.613-3.247-2.618-3.155-2.891-2.976-2.969-2.797-3.155-2.705-3.254-2.612-3.334-2.348-3.517-2.256-3.606-2.07-3.695-1.898-3.791-1.713-3.875-1.528-3.963-1.355-4.152-1.171-4.153-.992-4.233-.721-4.332-.542-4.325-.363-4.418-.087-4.418.087-4.424.363-4.326.542-4.238.721-4.141.992-4.153 1.171-3.968 1.355-3.969 1.528-3.783 1.713-3.696 1.898-3.612 2.07-3.511 2.256-3.427 2.348-3.252 2.612-3.063 2.705-3.063 2.797-2.797 2.976-2.712 3.155-2.611 3.247-2.434 3.334-2.164 3.517-2.168 3.606-1.8 3.696-1.805 3.79-1.534 3.875-1.349 4.062-1.178 4.053-.898 4.154-.815 4.232-.535 4.239-.364 4.418-.086 4.424.086 4.412.364 4.424.535 4.234.815 4.332.898 4.146 1.178 4.061 1.349 4.054 1.534 3.882 1.805 3.876 1.8 3.697 2.168 3.604 2.164 3.519 2.434 3.332 2.611 3.248 2.712 3.155 2.797 2.976 3.063 2.89 3.063 2.705 3.252 2.526 3.427 2.434 3.511 2.249 3.612 2.077 3.696 1.891 3.783 1.72 3.969 1.528 3.968 1.447 4.153 1.078 4.141.992 4.238.721 4.326.635 4.424.271 4.418.086z"/><path fill-rule="evenodd" clip-rule="evenodd" fill="#fbb230" d="M245.943 202.933h45.723v-4.69H249.91l-3.967 4.69zm-6.852 10.37h52.575v-4.69h-49.87l-2.705 4.69zm-5.139 10.37h57.714v-4.69h-55.638l-2.076 4.69zm-3.518 10.37h61.232v-4.597h-59.791l-1.441 4.597zm2.07 50.316h59.34v-4.688h-60.776l1.436 4.688zm4.332 10.37h55.008v-4.689h-57.171l2.163 4.689zm6.223 10.371h48.785v-4.689h-51.761l2.976 4.689zm8.478 10.37h40.307v-4.69h-44.453l4.146 4.69zm-23.174-71.057h63.303v-4.602h-62.402l-.901 4.602zm38.591 29.576h24.169V269.3h-23.264l-.905 4.689zm1.892-10.37h22.277v-4.689h-21.371l-.906 4.689zm-42.11-4.689h6.311v4.689h-5.946l-.365-4.689zm164.84 45.449c2.256 0 4.061 1.892 4.061 4.054a4.044 4.044 0 01-4.061 4.061 4.039 4.039 0 01-4.054-4.061c0-2.162 1.799-4.054 4.054-4.054zm0 .721c1.898 0 3.426 1.534 3.426 3.333a3.423 3.423 0 01-3.426 3.432c-1.799 0-3.34-1.533-3.34-3.432 0-1.799 1.541-3.333 3.34-3.333z"/><path d="M390.049 310.238v-3.426h1.441c.357 0 .629 0 .813.093.173.086.271.178.357.265.087.185.179.364.179.542 0 .271-.092.542-.179.635-.185.179-.45.271-.728.357.186.093.277.185.37.271.086.092.271.271.357.542l.45.721h-.808l-.548-.813c-.094-.271-.266-.357-.357-.449 0-.087-.093-.087-.18-.179h-.455v1.441h-.712zm.715-1.984h.455c.357 0 .537 0 .629-.086.086 0 .186 0 .186-.093.086-.092.086-.178.086-.271s0-.179-.086-.271c-.1-.094-.186-.094-.277-.18h-.992v.901z" fill="#fbb230"/><path d="M390.677 270.472a4.04 4.04 0 014.055 4.061c0 2.255-1.8 4.054-4.055 4.054s-4.054-1.799-4.054-4.054a4.038 4.038 0 014.054-4.061zm0 .72c1.898 0 3.427 1.533 3.427 3.34a3.423 3.423 0 01-3.427 3.426 3.424 3.424 0 01-3.426-3.426c0-1.806 1.528-3.34 3.426-3.34z" fill-rule="evenodd" clip-rule="evenodd" fill="#fff"/><path d="M389.143 276.245v-3.34h1.442c.362 0 .634 0 .813.092.092 0 .264.18.357.271.092.179.178.357.178.543a.791.791 0 01-.271.627c-.086.18-.356.271-.627.364.092.086.271.179.363.271.092.086.178.266.357.537l.455.635h-.813l-.543-.722c-.179-.271-.271-.45-.363-.45-.086-.092-.086-.185-.173-.185h-.542v1.356h-.633zm.634-1.892h.542c.357 0 .536 0 .628-.092.088 0 .18-.093.18-.093.092-.086.092-.179.092-.271 0-.086-.092-.271-.092-.271-.092-.086-.18-.179-.271-.179h-1.078v.906z" fill="#fff"/><path d="M332.695 276.873l5.859-30.654h7.303l.905 3.154c1.35-1.355 3.604-3.154 8.114-3.154l-2.254 8.115c-1.984 0-5.053-.363-7.572 5.588-1.893 4.511-2.798 11.991-3.791 16.951h-8.564zm-110.554-38.319h8.108l-1.8 8.114h4.511l-1.355 6.311h-4.055l-2.255 12.175c-.449 2.255 0 4.511 4.51 3.604l-.899 6.766c-4.868 3.697-14.615.992-13.081-8.115l6.316-28.855zm36.155 24.794c.9-4.959 3.156-17.129-11.361-17.129-13.524 0-15.33 13.525-15.33 15.324-.444 1.805-.444 15.33 13.98 15.33 3.604 0 8.657-.45 10.912-1.35l1.35-6.315c-1.35.456-5.952.905-9.557.905-3.154 0-8.564 0-7.665-6.766h17.671zm-98.376 13.525l7.215-36.97h-14.067l-9.921 22.545-1.805-22.545h-13.074l-7.216 36.97h8.115l5.416-26.6 2.255 26.6h7.665l11.72-26.15-4.961 26.15zm9.465-29.755l-1.35 6.766c2.255 0 7.664-.905 10.369-.905s6.311-.449 4.961 4.061c-2.256 0-17.137-2.256-19.392 10.819-1.257 8.657 9.021 11.813 15.33 7.665l.905 1.8h7.66l3.16-16.681c3.335-15.059-11.181-15.33-21.643-13.525zm134.277 2.705c-2.076-1.264-3.34-1.264-5.952-1.264-2.526 0-8.479 2.526-9.292 9.286-1.264 8.479 4.239 12.268 12.262 9.742l2.169 7.215c-13.704 6.852-26.788-3.79-22.456-20.383 3.512-12.533 20.108-20.105 28.408-9.736l-5.139 5.14z" fill-rule="evenodd" clip-rule="evenodd" fill="#fff"/><path d="M375.168 249.823c-22.096-16.594-30.666 27.05-13.531 27.05 2.705 0 5.416-1.35 7.216-2.255l.899 2.255h9.021l7.216-38.775h-8.57l-2.251 11.725zm-65.018-2.705l-1.35 6.766c2.248 0 7.665-.905 10.364-.905 2.712 0 5.866-.449 4.966 4.061-2.254 0-17.135-2.256-19.384 10.819-.913 6.31 4.504 9.465 8.564 9.465 4.054 0 5.409-.9 6.759-1.8l.9 1.8h7.671l3.154-16.681c3.429-15.059-11.095-15.33-21.644-13.525z" fill-rule="evenodd" clip-rule="evenodd" fill="#fff"/><path d="M240.625 257.488h10.37c1.171-8.207-8.657-6.581-10.37 0zm-58.609 5.86c-1.355 0-4.51-.899-7.222.906-2.698 1.799-3.604 4.954-.444 5.859 2.699.899 6.311-.905 7.209-3.61l.457-3.155z" fill-rule="evenodd" clip-rule="evenodd" fill="#eb2230"/><path d="M371.107 254.783c-2.705-3.611-8.564-.899-10.37 5.859-1.349 4.511 1.356 7.666 4.061 7.666 5.681.001 9.107-9.285 6.309-13.525zm-47.882 8.565c-1.348 0-4.504-.899-7.215.906-2.698 1.799-3.604 4.954-.443 5.859 2.699.899 6.76-.905 7.209-3.61l.449-3.155z" fill-rule="evenodd" clip-rule="evenodd" fill="#fbb230"/><path d="M258.296 277.323l.457-3.155 5.409-27.5h7.21l.899 3.155c1.355-1.355 3.611-3.155 8.121-3.155l-2.256 8.115c-1.713 0-5.323-.363-8.028 6.852-1.534 4.147-2.434 11.184-3.247 15.688h-8.565zm-43.642-23.26h-.721l-.356-.092-.364-.087h-.363l-.358-.093c-1.626-.178-2.976-.271-4.596-.178-4.153.357-5.952 2.969-2.439 4.953 2.797 1.627 4.965 1.355 6.851 3.161 4.062 3.784 1.984 11.091-2.526 13.883l-.807.363-.9.363-.991.265-.899.271c-4.332.721-10.191.542-14.432-.899l1.172-6.045c3.426.721 9.021 2.255 11.633.456 2.977-1.984.271-4.332-1.898-5.323l-1.078-.358-1.078-.449c-8.57-3.883-6.58-14.253 1.528-16.415 3.247-.721 6.495-.721 9.834-.45h.628c.814.087 1.535.18 2.256.358h.357l.271.092h.271l.178.092h.271l-1.444 6.132z" fill-rule="evenodd" clip-rule="evenodd" fill="#fff"/></svg>